HIERARCHY
ROOT joint_Root
{
	OFFSET 0.0 0.0 0.0
	CHANNELS 6 Xposition Yposition Zposition Zrotation Xrotation Yrotation 
	JOINT Hips
	{
		OFFSET 4.5925 91.4895 -427.239
		CHANNELS 6 Xposition Yposition Zposition Zrotation Xrotation Yrotation 
		JOINT Spine
		{
			OFFSET 15.7357 0.0 0.0
			CHANNELS 6 Xposition Yposition Zposition Zrotation Xrotation Yrotation 
			JOINT Chest
			{
				OFFSET 8.98455 -0.406207 0.0
				CHANNELS 6 Xposition Yposition Zposition Zrotation Xrotation Yrotation 
				JOINT Neck
				{
					OFFSET 16.3773 0.0 0.0
					CHANNELS 6 Xposition Yposition Zposition Zrotation Xrotation Yrotation 
					JOINT Head
					{
						OFFSET 6.45672 0.0 0.0
						CHANNELS 6 Xposition Yposition Zposition Zrotation Xrotation Yrotation 
						End Site
						{
							OFFSET 0.0 0.0 0.0
						}
					}
				}
				JOINT Shoulder_L
				{
					OFFSET 12.9942 -0.242716 4.98039
					CHANNELS 6 Xposition Yposition Zposition Zrotation Xrotation Yrotation 
					JOINT UpperArm_L
					{
						OFFSET 5.34809 0.0 0.0
						CHANNELS 6 Xposition Yposition Zposition Zrotation Xrotation Yrotation 
						JOINT LowerArm_L
						{
							OFFSET 24.3286 1.87007e-05 0.0
							CHANNELS 6 Xposition Yposition Zposition Zrotation Xrotation Yrotation 
							JOINT Hand_L
							{
								OFFSET 22.2916 0.0 0.0
								CHANNELS 6 Xposition Yposition Zposition Zrotation Xrotation Yrotation 
								End Site
								{
									OFFSET 0.0 0.0 0.0
								}
							}
						}
					}
				}
				JOINT Shoulder_R
				{
					OFFSET 12.9945 -0.242716 -4.98039
					CHANNELS 6 Xposition Yposition Zposition Zrotation Xrotation Yrotation 
					JOINT UpperArm_R
					{
						OFFSET -5.34813 0.0 0.0
						CHANNELS 6 Xposition Yposition Zposition Zrotation Xrotation Yrotation 
						JOINT LowerArm_R
						{
							OFFSET -24.3289 0.000322201 0.0
							CHANNELS 6 Xposition Yposition Zposition Zrotation Xrotation Yrotation 
							JOINT Hand_R
							{
								OFFSET -22.2915 -0.000108084 0.0
								CHANNELS 6 Xposition Yposition Zposition Zrotation Xrotation Yrotation 
								End Site
								{
									OFFSET 0.0 0.0 0.0
								}
							}
						}
					}
				}
			}
		}
		JOINT UpperLeg_L
		{
			OFFSET -2.19248 -6.46944 0.0
			CHANNELS 6 Xposition Yposition Zposition Zrotation Xrotation Yrotation 
			JOINT LowerLeg_L
			{
				OFFSET 39.0811 0.0 -1.23785e-05
				CHANNELS 6 Xposition Yposition Zposition Zrotation Xrotation Yrotation 
				JOINT Foot_L
				{
					OFFSET 40.9854 0.0 -1.26872e-05
					CHANNELS 6 Xposition Yposition Zposition Zrotation Xrotation Yrotation 
					JOINT Toes_L
					{
						OFFSET 11.7543 0.0 0.0
						CHANNELS 6 Xposition Yposition Zposition Zrotation Xrotation Yrotation 
						End Site
						{
							OFFSET 0.0 0.0 0.0
						}
					}
				}
			}
		}
		JOINT UpperLeg_R
		{
			OFFSET -2.19251 6.46944 0.0
			CHANNELS 6 Xposition Yposition Zposition Zrotation Xrotation Yrotation 
			JOINT LowerLeg_R
			{
				OFFSET -39.0811 -0.00228153 -0.0401928
				CHANNELS 6 Xposition Yposition Zposition Zrotation Xrotation Yrotation 
				JOINT Foot_R
				{
					OFFSET -40.9854 0.0 0.0
					CHANNELS 6 Xposition Yposition Zposition Zrotation Xrotation Yrotation 
					JOINT Toes_R
					{
						OFFSET -11.7543 0.0 0.0
						CHANNELS 6 Xposition Yposition Zposition Zrotation Xrotation Yrotation 
						End Site
						{
							OFFSET 0.0 0.0 0.0
						}
					}
				}
			}
		}
	}
}
MOTION
Frames:	4
Frame Time:	0.0333333
0.000000 0.000000 0.000000 0.000000 0.000000 -0.000000 -1.305000 90.102500 -1.734610 89.420600 -2.187730 12.082900 15.735700 0.000005 -0.000001 87.207400 76.689200 -86.996400 8.984550 -0.406207 -0.000000 18.829600 -1.250880 0.630316 16.377300 -0.000001 -0.000001 1.664670 -3.410780 2.425810 6.456720 -0.000001 -0.000000 -8.129770 -1.770770 2.240180 12.994200 -0.242716 4.980390 -91.260400 6.109380 -78.319800 5.348090 -0.000007 -0.000001 -49.053300 44.124600 -35.073600 24.328600 0.000019 0.000005 6.145660 16.268500 -21.024800 22.291600 -0.000001 0.000005 10.382100 5.246160 1.533970 12.994500 -0.242716 -4.980390 89.052300 11.026700 -85.056800 -5.348130 -0.000001 -0.000004 -57.895700 29.310600 -23.899800 -24.328900 0.000322 -0.000009 2.709720 6.101250 -24.011600 -22.291500 -0.000108 -0.000004 16.581300 5.387080 -2.522290 -2.192480 -6.469440 -0.000000 -173.681000 -10.863500 -1.063300 39.081100 -0.000007 -0.000012 -0.216442 0.313105 34.655600 40.985400 -0.000006 -0.000013 -0.675601 4.604260 -71.144900 11.754300 -0.000000 0.000003 -0.000127 -0.001261 -16.625700 -2.192510 6.469440 -0.000001 174.642000 18.929600 -179.850000 -39.081100 -0.002282 -0.040193 -0.101859 0.153526 34.407600 -40.985400 0.000008 0.000006 5.865540 11.552200 -72.699700 -11.754300 -0.000006 -0.000006 -0.002274 -0.032096 -17.878300
0.000000 0.000000 0.000000 0.000000 0.000000 -0.000000 -1.315430 90.106000 -1.752420 89.408200 -2.158200 12.078500 15.735700 0.000005 -0.000001 87.066700 76.696200 -86.896400 8.984550 -0.406207 -0.000000 18.812200 -1.318110 0.559838 16.377300 -0.000001 -0.000001 1.763680 -3.393470 2.417000 6.456720 -0.000001 -0.000000 -8.199590 -1.741480 2.186530 12.994200 -0.242716 4.980390 -91.257800 6.089100 -78.305800 5.348090 -0.000007 -0.000001 -48.997800 44.139300 -35.073800 24.328600 0.000019 0.000005 6.120450 16.189700 -21.036000 22.291600 -0.000001 0.000005 10.404500 5.246570 1.523140 12.994500 -0.242716 -4.980390 89.028900 10.973300 -84.911100 -5.348130 -0.000001 -0.000004 -58.119500 28.698200 -23.656000 -24.328900 0.000322 -0.000009 2.859800 6.119000 -25.118000 -22.291500 -0.000108 -0.000004 16.828200 5.391390 -2.659560 -2.192480 -6.469440 -0.000000 -173.672000 -10.823000 -1.074440 39.081100 -0.000007 -0.000012 -0.218434 0.316084 34.647300 40.985400 -0.000006 -0.000013 -0.682555 4.602030 -71.132700 11.754300 -0.000000 0.000003 -0.000125 -0.001245 -16.625100 -2.192510 6.469440 -0.000001 174.667000 18.983700 -179.862000 -39.081100 -0.002282 -0.040193 -0.100217 0.151119 34.409400 -40.985400 0.000008 0.000006 6.012940 11.512900 -72.724300 -11.754300 -0.000006 -0.000006 -0.002283 -0.032208 -17.882800
0.000000 0.000000 0.000000 0.000000 0.000000 -0.000000 -1.329700 90.104100 -1.755550 89.381800 -2.190160 12.114100 15.735700 0.000005 -0.000001 87.014500 76.700600 -86.891800 8.984550 -0.406207 -0.000000 18.801800 -1.346020 0.468708 16.377300 -0.000001 -0.000001 1.885680 -3.381630 2.425190 6.456720 -0.000001 -0.000000 -8.240540 -1.713550 2.134750 12.994200 -0.242716 4.980390 -91.244100 6.036800 -78.332800 5.348090 -0.000007 -0.000001 -49.050600 44.110900 -34.985400 24.328600 0.000019 0.000005 6.136880 16.239800 -21.030100 22.291600 -0.000001 0.000005 10.408200 5.246120 1.535090 12.994500 -0.242716 -4.980390 89.012200 10.867400 -84.774500 -5.348130 -0.000001 -0.000004 -58.288900 28.159600 -23.472500 -24.328900 0.000322 -0.000009 2.940380 5.937540 -26.414700 -22.291500 -0.000108 -0.000004 17.002500 5.395250 -2.783640 -2.192480 -6.469440 -0.000000 -173.624000 -10.815500 -1.048970 39.081100 -0.000007 -0.000012 -0.220027 0.318167 34.666000 40.985400 -0.000006 -0.000013 -0.700443 4.593450 -71.136200 11.754300 -0.000000 0.000003 -0.000118 -0.001183 -16.622800 -2.192510 6.469440 -0.000001 174.682000 18.989000 -179.818000 -39.081100 -0.002282 -0.040193 -0.100817 0.152112 34.388700 -40.985400 0.000008 0.000006 5.910230 11.576500 -72.686600 -11.754300 -0.000006 -0.000006 -0.002383 -0.033414 -17.931900
0.000000 0.000000 0.000000 0.000000 0.000000 -0.000000 -1.335200 90.108800 -1.795840 89.365700 -2.241160 12.110300 15.735700 0.000005 -0.000001 86.928400 76.723100 -86.868000 8.984550 -0.406207 -0.000000 18.754300 -1.388860 0.350603 16.377300 -0.000001 -0.000001 1.999410 -3.330030 2.412490 6.456720 -0.000001 -0.000000 -8.242970 -1.662350 2.138330 12.994200 -0.242716 4.980390 -91.229200 5.950220 -78.306300 5.348090 -0.000007 -0.000001 -49.081000 44.088200 -34.957200 24.328600 0.000019 0.000005 6.107380 16.229400 -20.949100 22.291600 -0.000001 0.000005 10.281800 5.250360 1.423210 12.994500 -0.242716 -4.980390 89.003200 10.760400 -84.675900 -5.348130 -0.000001 -0.000004 -58.313600 27.742600 -23.379600 -24.328900 0.000322 -0.000009 3.008160 5.705440 -27.869400 -22.291500 -0.000108 -0.000004 17.144000 5.398610 -2.892500 -2.192480 -6.469440 -0.000000 -173.602000 -10.851500 -1.072500 39.081100 -0.000007 -0.000012 -0.219549 0.317506 34.663500 40.985400 -0.000006 -0.000013 -0.702004 4.589380 -71.109400 11.754300 -0.000000 0.000003 -0.000130 -0.001282 -16.626500 -2.192510 6.469440 -0.000001 174.714000 19.002900 -179.848000 -39.081100 -0.002282 -0.040193 -0.097548 0.147396 34.377900 -40.985400 0.000008 0.000006 5.963380 11.611000 -72.664600 -11.754300 -0.000006 -0.000006 -0.002339 -0.032887 -17.910400
